# xmcd
#
# Track frame offsets: 
#        150
#        19245
#        35255
#        56580
#        79057
#        98035
#        115165
#        135400
#        147490
#        172650
#
# Disc length: 2616 seconds
#
# Revision: 3
# Processed by: cddbd v1.5.2PL0 Copyright (c) Steve Scherf et al.
# Submitted via: ExactAudioCopy v1.0b4
#
DISCID=780a360a
DTITLE=Smokin' Joe Kubek Band - Got My Mind Back
DYEAR=1996
DGENRE=Texas Blues
TTITLE0=Got My Mind Back
TTITLE1=Got You By The Tail
TTITLE2=Can't See For Lookin'
TTITLE3=All The Love There Is
TTITLE4=She's It
TTITLE5=Let Me Take Your Picture
TTITLE6=I'm Here For You
TTITLE7=Don't Touch Her
TTITLE8=Cryin' By Myself
TTITLE9=Double Or Nothing
EXTD=YEAR: 1996
EXTT0=
EXTT1=
EXTT2=
EXTT3=
EXTT4=
EXTT5=
EXTT6=
EXTT7=
EXTT8=
EXTT9=
PLAYORDER=
